<svg width="24" height="25" viewBox="0 0 24 25" fill="none" xmlns="http://www.w3.org/2000/svg">
<g id="vuesax/outline/menu">
<g id="menu">
<path id="Vector" d="M21 8.44519H3C2.59 8.44519 2.25 8.10519 2.25 7.69519C2.25 7.28519 2.59 6.94519 3 6.94519H21C21.41 6.94519 21.75 7.28519 21.75 7.69519C21.75 8.10519 21.41 8.44519 21 8.44519Z" fill="#EAA919"/>
<path id="Vector_2" d="M21 13.4452H3C2.59 13.4452 2.25 13.1052 2.25 12.6952C2.25 12.2852 2.59 11.9452 3 11.9452H21C21.41 11.9452 21.75 12.2852 21.75 12.6952C21.75 13.1052 21.41 13.4452 21 13.4452Z" fill="#EAA919"/>
<path id="Vector_3" d="M21 18.4452H3C2.59 18.4452 2.25 18.1052 2.25 17.6952C2.25 17.2852 2.59 16.9452 3 16.9452H21C21.41 16.9452 21.75 17.2852 21.75 17.6952C21.75 18.1052 21.41 18.4452 21 18.4452Z" fill="#EAA919"/>
</g>
</g>
</svg>
