<svg width="25" height="25" viewBox="0 0 25 25" fill="none" xmlns="http://www.w3.org/2000/svg">
<path d="M11.9143 21.8144C6.06528 15.2219 5.52824 10.8472 11.0616 3.68535C11.207 3.49718 11.4685 3.43663 11.6808 3.5438L14.8077 5.12247C15.0336 5.23652 15.1386 5.50137 15.0524 5.73926L13.8562 9.03804C13.7873 9.2278 13.6112 9.35757 13.4096 9.36704L11.4156 9.46065C11.227 9.46951 11.0586 9.58421 10.9845 9.75788C10.0008 12.0644 10.0424 13.4032 11.2705 15.5112C11.3517 15.6505 11.4971 15.7394 11.6578 15.7519L13.7625 15.9152C13.9413 15.9291 14.0991 16.0378 14.1758 16.2L15.6943 19.4112C15.8024 19.64 15.7226 19.9135 15.5084 20.0482L12.5529 21.9068C12.3473 22.0361 12.0755 21.9961 11.9143 21.8144Z" stroke="#EAA919" stroke-width="1.4" stroke-linecap="round"/>
</svg>
